<svg width="32" height="32" viewBox="0 0 32 32" fill="none" xmlns="http://www.w3.org/2000/svg">
<g clip-path="url(#clip0_3327_2490)">
<path d="M0 7.48439C0 3.35088 3.35088 0 7.48439 0H24.5156C28.6491 0 32 3.35088 32 7.48439V24.5156C32 28.6491 28.6491 32 24.5156 32H7.48439C3.35088 32 0 28.6491 0 24.5156V7.48439Z" fill="white"/>
<path d="M16.7114 5.22393C16.904 5.18542 17.1491 5.1399 17.2541 5.12239C17.3591 5.10488 17.7758 5.08738 18.182 5.08387C18.6757 5.08037 19.0433 5.09788 19.3024 5.13289C19.516 5.16441 19.8136 5.21693 19.9677 5.25194C20.1218 5.29046 20.3914 5.36749 20.5629 5.43051C20.7345 5.49004 21.0496 5.62309 21.2632 5.72814C21.4768 5.82968 21.8375 6.03976 22.0685 6.19032C22.2996 6.34438 22.6533 6.59999 22.8564 6.76105C23.0594 6.92212 23.4516 7.28276 23.7317 7.56288C24.0118 7.84299 24.3935 8.26316 24.5791 8.49425C24.7611 8.72535 25.0448 9.1105 25.2058 9.3521C25.3704 9.5937 25.6085 9.97885 25.7345 10.2099C25.8641 10.441 26.0357 10.7737 26.1162 10.9452C26.1932 11.1168 26.3193 11.4109 26.3928 11.593C26.4663 11.7751 26.5819 12.0972 26.6484 12.3108C26.7184 12.5244 26.813 12.8535 26.862 13.0461C26.911 13.2387 26.981 13.5783 27.0196 13.7989C27.0616 14.0195 27.1176 14.4607 27.1456 14.7793C27.1736 15.0979 27.1981 15.5146 27.1981 15.7072C27.1981 15.8997 27.1736 16.3094 27.1456 16.6175C27.1141 16.9257 27.0686 17.3213 27.0371 17.4929C27.009 17.6645 26.946 17.9726 26.9005 18.1757C26.855 18.3787 26.7604 18.7289 26.6904 18.9565C26.6239 19.1806 26.4908 19.5587 26.3963 19.7968C26.3053 20.0314 26.1022 20.4761 25.9446 20.7842C25.7906 21.0923 25.5209 21.5615 25.3459 21.8276C25.1708 22.0903 25.0272 22.3143 25.0272 22.3248C25.0272 22.3353 25.4089 22.6925 25.8711 23.1232C26.3368 23.5503 26.7604 23.9565 26.8165 24.023C26.869 24.0896 26.96 24.2506 27.0196 24.3837C27.0791 24.5132 27.1421 24.7233 27.1631 24.8564C27.1841 25.0069 27.1841 25.175 27.1631 25.3291C27.1421 25.4586 27.0966 25.6477 27.0616 25.7492C27.0231 25.8473 26.925 26.0258 26.841 26.1414C26.7569 26.2569 26.6239 26.404 26.5469 26.467C26.4733 26.53 26.3158 26.6281 26.2002 26.6841C26.0847 26.7401 25.8956 26.8102 25.78 26.8417C25.6645 26.8697 25.4999 26.8942 25.4124 26.8942C25.3249 26.8942 25.1533 26.8697 25.0272 26.8382C24.9012 26.8102 24.6981 26.7296 24.5721 26.6631C24.418 26.5826 24.1554 26.369 23.7667 26.0153C23.4481 25.7212 23.0279 25.3361 22.4712 24.8284L22.0966 25.0665C21.8865 25.1995 21.6624 25.3396 21.5959 25.3781C21.5301 25.4196 21.2726 25.5502 21.0266 25.6749L21.0181 25.6792C20.7695 25.8053 20.3669 25.9873 20.1253 26.0819C19.8837 26.1764 19.537 26.3025 19.355 26.362C19.1729 26.4215 18.8648 26.509 18.6722 26.5546C18.4796 26.6036 18.133 26.6771 17.9019 26.7156C17.6708 26.7576 17.2366 26.8137 16.939 26.8417C16.6414 26.8697 16.2142 26.8942 15.9936 26.8942C15.773 26.8942 15.3388 26.8697 15.0307 26.8417C14.7226 26.8102 14.2884 26.7541 14.0678 26.7156C13.8472 26.6771 13.5076 26.6036 13.315 26.5581C13.1224 26.509 12.8073 26.4215 12.6147 26.362C12.4221 26.3025 12.051 26.1694 11.7919 26.0644C11.5328 25.9593 11.0986 25.7597 10.829 25.6232C10.5594 25.4831 10.1497 25.245 9.91864 25.0945C9.68754 24.9439 9.34791 24.7058 9.16583 24.5658C8.98376 24.4292 8.66863 24.1631 8.46555 23.981C8.26247 23.7989 7.97185 23.5153 7.82129 23.3543C7.67073 23.1932 7.41162 22.8956 7.25056 22.6925C7.08599 22.4894 6.83389 22.1428 6.68333 21.9222C6.53627 21.7016 6.31918 21.355 6.20714 21.1519C6.09509 20.9488 5.90952 20.5881 5.80097 20.3465C5.69243 20.1049 5.52786 19.7023 5.43682 19.4537C5.34579 19.2051 5.21273 18.7639 5.1392 18.4733C5.06567 18.1862 4.97114 17.752 4.93262 17.5104C4.8906 17.2688 4.84509 16.8906 4.82408 16.6701C4.80657 16.4495 4.78906 16.0013 4.78906 15.6722C4.78906 15.343 4.80657 14.8948 4.82408 14.6743C4.84509 14.4537 4.90111 14.051 4.95013 13.7814C4.99565 13.5118 5.08318 13.1091 5.1392 12.8885C5.19523 12.6679 5.30377 12.3003 5.3808 12.0727C5.46133 11.8486 5.58739 11.509 5.66792 11.3234C5.74495 11.1343 5.91652 10.7772 6.04607 10.5251C6.17562 10.273 6.3682 9.93684 6.46974 9.77227C6.57128 9.6077 6.76036 9.33109 6.88641 9.15602C7.01246 8.97745 7.24706 8.67983 7.40462 8.49075C7.55868 8.29817 7.86681 7.96904 8.0874 7.75896C8.36051 7.48935 8.54608 7.34229 8.68614 7.27576C8.79468 7.22324 8.99076 7.15671 9.12382 7.1252C9.28021 7.08785 9.44011 7.07501 9.60351 7.08668C9.73656 7.09719 9.94315 7.13921 10.0587 7.18122C10.1742 7.21974 10.3493 7.30727 10.4438 7.3703C10.5419 7.43332 10.6924 7.56288 10.787 7.65742C10.878 7.75195 10.9971 7.91652 11.0531 8.02156C11.1126 8.12661 11.1826 8.31568 11.2107 8.44173C11.2422 8.56778 11.2667 8.75686 11.2667 8.8619C11.2667 8.96694 11.2422 9.15252 11.2142 9.27507C11.1861 9.39412 11.1196 9.57619 11.0671 9.67423C11.0146 9.78628 10.8255 10.0139 10.6049 10.245C10.3983 10.4585 10.1287 10.7562 10.0062 10.9102C9.88362 11.0643 9.69455 11.3234 9.5895 11.488C9.48096 11.6525 9.30239 11.9572 9.19384 12.1707C9.0853 12.3843 8.93474 12.7135 8.85771 12.906C8.78068 13.0986 8.67914 13.3997 8.63012 13.5713C8.5811 13.7429 8.50757 14.051 8.46555 14.2541C8.42353 14.4572 8.37451 14.8668 8.35 15.1645C8.32199 15.5741 8.32199 15.8402 8.3535 16.2499C8.37801 16.5475 8.43404 16.9642 8.47955 17.1778C8.52507 17.3914 8.60911 17.7205 8.66863 17.9131C8.72465 18.1056 8.8297 18.4068 8.90323 18.5783C8.97325 18.7499 9.0888 19.002 9.15533 19.1386C9.22536 19.2751 9.35141 19.5027 9.43894 19.6463C9.52648 19.7898 9.73306 20.0909 9.89763 20.3115C10.0622 20.5321 10.3633 20.8788 10.5664 21.0818C10.7695 21.2849 11.0846 21.565 11.2667 21.7086C11.4488 21.8487 11.7324 22.0482 11.8969 22.1498C12.0615 22.2513 12.3661 22.4194 12.5797 22.5244C12.7933 22.633 13.1224 22.7765 13.315 22.8501C13.5076 22.9236 13.8717 23.0321 14.1203 23.0952C14.3689 23.1582 14.7541 23.2352 14.9712 23.2667C15.2163 23.3017 15.5979 23.3227 15.9866 23.3227C16.3647 23.3227 16.7499 23.3017 16.974 23.2667C17.1771 23.2387 17.4922 23.1792 17.6743 23.1407C17.8563 23.1022 18.14 23.0251 18.3045 22.9726C18.4691 22.9166 18.7247 22.8255 18.8753 22.766C19.0223 22.7065 19.2674 22.5945 19.418 22.5209C19.565 22.4439 19.7156 22.3634 19.7506 22.3353C19.8101 22.2933 19.7366 22.2093 18.8402 21.3409C18.3045 20.8157 17.4572 19.9579 16.953 19.4327C16.4488 18.904 15.9306 18.3542 15.801 18.2107C15.668 18.0671 15.3948 17.752 15.1918 17.5139C14.9887 17.2758 14.7121 16.9397 14.579 16.7611C14.4495 16.586 14.2324 16.2849 14.1028 16.0923C13.9733 15.8997 13.7562 15.5531 13.6196 15.322C13.4831 15.0909 13.2765 14.7058 13.1609 14.4642C13.0454 14.2226 12.8808 13.8304 12.7898 13.5888C12.6988 13.3472 12.5797 12.9866 12.5237 12.7835C12.4677 12.5804 12.3801 12.1952 12.3311 11.9256C12.2821 11.656 12.2331 11.2324 12.2226 10.9803C12.2121 10.7212 12.2226 10.357 12.2436 10.1399C12.2681 9.92633 12.3171 9.61121 12.3556 9.43964C12.3906 9.26456 12.4642 8.99846 12.5132 8.8444C12.5657 8.69033 12.6778 8.41372 12.7618 8.23165C12.8458 8.04957 13.0174 7.74845 13.1364 7.56638C13.259 7.38431 13.4586 7.1217 13.5811 6.98864C13.7037 6.85209 13.9138 6.642 14.0503 6.52296C14.1834 6.40041 14.439 6.20433 14.6105 6.08878C14.7821 5.97323 15.0972 5.79466 15.3108 5.69312C15.5244 5.59158 15.8465 5.46203 16.0286 5.4025C16.2107 5.34298 16.5188 5.26595 16.7114 5.22393Z" fill="#161616"/>
<path d="M17.3767 8.71134C17.5132 8.67983 17.6603 8.64832 17.7093 8.64131C17.7583 8.63081 17.9789 8.62381 18.1995 8.62031C18.4201 8.62031 18.7457 8.63781 18.9173 8.66582C19.0888 8.69033 19.3269 8.74986 19.4425 8.79538C19.558 8.8444 19.7541 8.93893 19.8802 9.00896C20.0062 9.07899 20.2688 9.25406 20.4649 9.40112C20.6645 9.54818 20.9866 9.82829 21.1862 10.0244C21.3823 10.224 21.6519 10.5181 21.7849 10.6826C21.918 10.8472 22.1386 11.1518 22.2786 11.3654C22.4222 11.579 22.6218 11.9151 22.7303 12.1182C22.8354 12.3213 22.9929 12.6574 23.077 12.871C23.161 13.0846 23.2835 13.4277 23.3431 13.6413C23.4026 13.8549 23.4866 14.1981 23.5251 14.4116C23.5777 14.6743 23.6057 15.0069 23.6162 15.4621C23.6302 15.8647 23.6197 16.2639 23.5952 16.4775C23.5742 16.6701 23.5146 17.0167 23.4691 17.2478C23.4201 17.4789 23.3081 17.8815 23.2205 18.1407C23.133 18.3998 22.9684 18.8024 22.8564 19.0335C22.7443 19.2646 22.5903 19.5447 22.3837 19.8634L21.8585 19.3451C21.5678 19.058 20.9096 18.3998 20.3914 17.878C19.8732 17.3598 19.2254 16.6946 18.9558 16.4075C18.6827 16.1168 18.2975 15.6932 18.0944 15.4621C17.8914 15.231 17.6217 14.9088 17.4957 14.7443C17.3661 14.5797 17.1526 14.2821 17.0195 14.079C16.8865 13.8759 16.7079 13.5923 16.6238 13.4488C16.5398 13.3052 16.4033 13.0426 16.3227 12.871C16.2422 12.6995 16.1196 12.3913 16.0496 12.1882C15.9796 11.9852 15.8885 11.6665 15.8535 11.4775C15.808 11.2604 15.7835 10.9978 15.7835 10.7422C15.7835 10.5181 15.808 10.2555 15.836 10.1294C15.864 10.0104 15.9376 9.81429 15.9971 9.69174C16.0601 9.56919 16.2037 9.38011 16.3227 9.25756C16.4838 9.0965 16.6133 9.00896 16.8339 8.90392C16.9985 8.82689 17.2401 8.73935 17.3767 8.71134Z" fill="#FEFEFE"/>
</g>
<defs>
<clipPath id="clip0_3327_2490">
<path d="M0 7.48439C0 3.35088 3.35088 0 7.48439 0H24.5156C28.6491 0 32 3.35088 32 7.48439V24.5156C32 28.6491 28.6491 32 24.5156 32H7.48439C3.35088 32 0 28.6491 0 24.5156V7.48439Z" fill="white"/>
</clipPath>
</defs>
</svg>
